# xmcd
#
# Track frame offsets:
#	150
#	14483
#	28653
#	36560
#	57662
#	66806
#	79046
#	87577
#	99613
#	113511
#	126595
#	138123
#	148053
#	162020
#	170643
#	181318
#	192074
#	204160
#	211873
#	226135
#
# Disc length: 3167 seconds
#
# Revision: 1
# Processed by: cddbd v1.5.2PL0 Copyright (c) Steve Scherf et al.
# Submitted via: audiograbber 1.83.01
#
DISCID=190c5d14
DTITLE=Ronnie Prophet and Glory-Anne - Country Gold
DYEAR=2007
DGENRE=Country
TTITLE0=Train Medley
TTITLE1=Back In Love By Monday
TTITLE2=Cincinnati Ohio
TTITLE3=Hank Snow Medley
TTITLE4=It Must Be Love
TTITLE5=Sanctuary
TTITLE6=Keys In The Mailbox
TTITLE7=Golden Rings
TTITLE8=For The Good Times
TTITLE9=Phsntom of the Opry
TTITLE10=Singin' The Blues
TTITLE11=Puttin' On The Dog
TTITLE12=Ghost Riders In The Sky
TTITLE13=Kansas City Star
TTITLE14=Auctioneer
TTITLE15=Bells of St. Mary
TTITLE16=I'm My Own Grandpa
TTITLE17=Gospel Medley
TTITLE18=One Day At A Time
TTITLE19=The Ole House
EXTD=
EXTT0=Boxcar Willie Tribute
EXTT1=
EXTT2=
EXTT3=Hank Snow Tribute
EXTT4=
EXTT5=
EXTT6=
EXTT7=
EXTT8=
EXTT9=
EXTT10=
EXTT11=
EXTT12=arranged by R. Prophet
EXTT13=
EXTT14=
EXTT15=medley arranged by R. Prophet
EXTT16=
EXTT17=arranged by R. Prophet
EXTT18=
EXTT19=
PLAYORDER=
